<svg xmlns="http://www.w3.org/2000/svg" viewBox="0 0 354.21 354.21"><defs><style>.cls-1{opacity:0.3;}.cls-2{fill:#515151;}.cls-3{opacity:0.79;}.cls-4,.cls-5{fill:none;stroke:#282828;stroke-miterlimit:10;stroke-width:3px;}.cls-4{opacity:0.9;}.cls-6{fill:#474746;}.cls-7{fill:#7f7f7f;}</style></defs><title>quadcopterAsset 1</title><g id="Layer_2" data-name="Layer 2"><g id="Layer_1-2" data-name="Layer 1"><g class="cls-1"><path class="cls-2" d="M177.11,0A177.11,177.11,0,1,1,0,177.11,177.11,177.11,0,0,1,177.11,0Z"/></g><g class="cls-3"><circle class="cls-4" cx="148.65" cy="148.49" r="27.33"/><line class="cls-5" x1="129.68" y1="128.83" x2="148.8" y2="147.94"/></g><g class="cls-3"><circle class="cls-4" cx="208.5" cy="148.49" r="27.33" transform="translate(-37.4 219.57) rotate(-51.58)"/><line class="cls-5" x1="235.7" y1="145.84" x2="208.84" y2="148.94"/></g><g class="cls-3"><circle class="cls-4" cx="210.79" cy="205.72" r="27.33" transform="translate(-67.02 107.87) rotate(-24.9)"/><line class="cls-5" x1="200.94" y1="231.2" x2="210.23" y2="205.82"/></g><g class="cls-3"><circle class="cls-4" cx="148.65" cy="205.72" r="27.33" transform="translate(-97.9 145.48) rotate(-40.42)"/><line class="cls-5" x1="121.46" y1="203.05" x2="148.41" y2="205.21"/></g><rect class="cls-6" x="161.16" y="156.93" width="32.48" height="42.93" rx="6.01" ry="6.01" transform="translate(-1 355.78) rotate(-90)"/><rect class="cls-7" x="173.01" y="162.31" width="8.77" height="32.17" rx="4.38" ry="4.38" transform="translate(-1 355.78) rotate(-90)"/></g></g></svg>
