<?xml version="1.0" encoding="utf-8"?>
<!-- Generator: Adobe Illustrator 20.0.0, SVG Export Plug-In . SVG Version: 6.00 Build 0)  -->
<svg version="1.1" id="Layer_1" xmlns="http://www.w3.org/2000/svg" xmlns:xlink="http://www.w3.org/1999/xlink" x="0px" y="0px"
	 viewBox="0 0 354.2 354.2" style="enable-background:new 0 0 354.2 354.2;" xml:space="preserve">
<style type="text/css">
	.st0{fill:#434930;}
	.st1{fill:none;stroke:#212318;stroke-width:0.25;stroke-miterlimit:10;}
	.st2{fill:#282B1D;}
	.st3{fill:#606B43;}
	.st4{fill:#212318;}
</style>
<title>roverbotAsset 2</title>
<path class="st0" d="M132.3,203.5h33.2c3.3,0,6.1,2.7,6.1,6.1v16.6c0,3.3-2.7,6.1-6.1,6.1h-33.2c-3.3,0-6.1-2.7-6.1-6.1v-16.6
	C126.3,206.2,129,203.5,132.3,203.5z"/>
<line class="st1" x1="128.1" y1="228.4" x2="170.2" y2="228.4"/>
<line class="st1" x1="127.5" y1="223.3" x2="170.3" y2="223.3"/>
<line class="st1" x1="126.8" y1="217.9" x2="170.8" y2="217.9"/>
<line class="st1" x1="128" y1="212.9" x2="168.8" y2="212.9"/>
<path class="st0" d="M186.9,203.5h33.2c3.3,0,6.1,2.7,6.1,6.1v16.6c0,3.3-2.7,6.1-6.1,6.1h-33.2c-3.3,0-6.1-2.7-6.1-6.1v-16.6
	C180.8,206.2,183.5,203.5,186.9,203.5z"/>
<line class="st1" x1="182.6" y1="228.4" x2="224.8" y2="228.4"/>
<line class="st1" x1="182.1" y1="223.3" x2="224.8" y2="223.3"/>
<line class="st1" x1="181.4" y1="217.9" x2="225.4" y2="217.9"/>
<line class="st1" x1="182.5" y1="212.9" x2="223.4" y2="212.9"/>
<path class="st2" d="M145.9,167.1h62.4c6.6,0,12,5.4,12,12v20c0,6.6-5.4,12-12,12h-62.4c-6.6,0-12-5.4-12-12v-20
	C133.9,172.5,139.3,167.1,145.9,167.1z"/>
<rect x="158.2" y="154.8" class="st0" width="38" height="23.5"/>
<rect x="148.4" y="138.6" class="st3" width="59.8" height="26.2"/>
<path class="st4" d="M154.5,146.2h47.7c1.1,0,1.9,0.9,1.9,1.9v1.7c0,1.1-0.9,1.9-1.9,1.9h-47.7c-1.1,0-1.9-0.9-1.9-1.9v-1.7
	C152.6,147.1,153.4,146.2,154.5,146.2z"/>
<path class="st0" d="M215.8,168.2l4.6-0.6c2.8-0.4,5.5,1.6,5.9,4.4l3,21.6c0.4,2.8-1.6,5.5-4.4,5.9l-4.6,0.6
	c-2.8,0.4-5.5-1.6-5.9-4.4l-3-21.6C211,171.2,213,168.5,215.8,168.2z"/>
<path class="st0" d="M134.6,167.5l4.8,0.9c3,0.6,4.9,3.4,4.3,6.4l-4,20.9c-0.6,3-3.4,4.9-6.4,4.3l-4.8-0.9c-3-0.6-4.9-3.4-4.3-6.4
	l4-20.9C128.7,168.9,131.6,166.9,134.6,167.5z"/>
<path class="st4" d="M168.3,182.4h17.7c0.5,0,1,0.4,1,1v0.8c0,0.5-0.4,1-1,1h-17.7c-0.5,0-1-0.4-1-1v-0.8
	C167.3,182.8,167.7,182.4,168.3,182.4z"/>
<path class="st4" d="M166,186.6h22.2c0.5,0,1,0.4,1,1v0.8c0,0.5-0.4,1-1,1H166c-0.5,0-1-0.4-1-1v-0.8
	C165.1,187,165.5,186.6,166,186.6z"/>
</svg>
